<?xml version="1.0" standalone="no"?>
<!DOCTYPE svg PUBLIC "-//W3C//DTD SVG 20010904//EN"
 "http://www.w3.org/TR/2001/REC-SVG-20010904/DTD/svg10.dtd">
<svg version="1.0" xmlns="http://www.w3.org/2000/svg"
 width="529.000000pt" height="816.000000pt" viewBox="0 0 529.000000 816.000000"
 preserveAspectRatio="xMidYMid meet">

<g transform="translate(0.000000,816.000000) scale(0.100000,-0.100000)"
fill="#000000" stroke="none">
<path d="M750 8012 c-27 -8 -50 -35 -50 -56 0 -75 106 -92 124 -20 12 45 -32
89 -74 76z"/>
<path d="M990 7990 c-26 -26 -25 -46 5 -75 l24 -25 629 0 c593 0 631 1 652 18
28 22 30 70 4 89 -14 10 -141 13 -656 13 -625 0 -638 0 -658 -20z"/>
<path d="M530 5110 l0 -2550 28 0 c26 0 31 7 71 108 128 316 261 594 331 690
49 68 82 84 171 80 64 -3 83 -8 124 -33 27 -17 63 -50 80 -74 28 -39 30 -49
30 -124 -1 -91 -33 -204 -140 -491 -30 -82 -55 -151 -55 -153 0 -2 657 -3
1461 -3 1387 0 1461 1 1454 18 -53 137 -141 394 -166 482 -52 186 -30 273 85
345 61 37 172 48 225 21 73 -38 200 -270 362 -663 80 -194 85 -203 112 -203
l27 0 0 2550 0 2550 -2100 0 -2100 0 0 -2550z m2385 2241 c225 -129 305 -463
224 -936 -12 -69 -58 -171 -98 -218 -57 -69 -59 -60 26 -119 262 -184 393
-475 393 -873 0 -117 -1 -125 -22 -139 -20 -14 -113 -16 -809 -16 -741 0 -788
1 -809 18 -21 17 -22 25 -21 142 3 262 57 469 166 635 50 77 163 190 243 244
l62 42 -44 57 c-59 75 -92 149 -106 236 -7 39 -23 92 -36 118 -86 165 -100
328 -39 434 91 156 553 402 760 403 48 1 70 -5 110 -28z m1015 -2601 c11 -11
20 -29 20 -40 0 -11 -9 -29 -20 -40 -20 -20 -33 -20 -1300 -20 -1267 0 -1280
0 -1300 20 -11 11 -20 29 -20 40 0 11 9 29 20 40 20 20 33 20 1300 20 1267 0
1280 0 1300 -20z m-2 -330 c27 -26 28 -54 2 -80 -20 -20 -33 -20 -1300 -20
-1267 0 -1280 0 -1300 20 -27 27 -25 55 6 79 27 21 27 21 1298 21 1267 0 1272
0 1294 -20z m-3 -335 c29 -28 31 -42 9 -73 l-15 -22 -1289 0 -1289 0 -15 22
c-22 31 -20 45 9 73 l24 25 1271 0 1271 0 24 -25z m12 -341 c15 -24 15 -29 2
-53 l-15 -26 -1294 0 -1294 0 -15 26 c-13 24 -13 29 2 53 l17 26 1290 0 1290
0 17 -26z"/>
<path d="M2724 7250 c-169 -44 -418 -177 -525 -280 -60 -58 -68 -70 -75 -113
-7 -54 11 -143 47 -226 21 -51 22 -51 68 -51 68 0 223 28 316 57 87 27 164 64
235 112 25 17 53 31 62 31 10 0 57 -33 106 -74 l89 -74 6 66 c8 80 -7 236 -29
312 -31 109 -84 188 -153 232 -52 33 -54 33 -147 8z"/>
<path d="M2740 6589 c-114 -59 -231 -93 -392 -116 l-119 -17 7 -30 c22 -105
120 -227 218 -272 120 -55 232 -55 352 0 108 50 209 184 220 294 l5 47 -86 70
c-47 39 -91 71 -98 71 -6 1 -55 -20 -107 -47z"/>
<path d="M2318 6022 l-58 -38 182 -157 c99 -86 184 -157 188 -157 4 0 89 71
188 157 l182 157 -58 38 -57 38 -63 -26 c-120 -48 -278 -48 -388 1 -31 14 -57
25 -58 25 0 0 -27 -17 -58 -38z"/>
<path d="M2123 5858 c-118 -130 -190 -333 -208 -590 l-7 -98 722 0 722 0 -7
98 c-14 202 -67 390 -141 502 -38 57 -103 130 -115 130 -4 0 -103 -83 -220
-185 -158 -137 -220 -185 -239 -185 -19 0 -81 48 -239 185 -117 102 -216 185
-221 185 -4 0 -25 -19 -47 -42z"/>
<path d="M4976 6068 c-14 -20 -16 -98 -16 -653 0 -695 -2 -675 60 -675 62 0
60 -20 60 675 0 695 2 675 -60 675 -18 0 -34 -8 -44 -22z"/>
<path d="M4977 4572 c-37 -41 -11 -102 43 -102 36 0 60 23 60 59 0 54 -68 82
-103 43z"/>
<path d="M1074 3308 c-78 -87 -222 -389 -390 -822 -41 -104 -81 -198 -90 -208
-21 -22 -42 -23 -72 -2 -25 17 -28 47 -8 95 32 80 33 79 -22 79 -85 0 -82 -12
-82 361 l-1 324 -25 -30 c-40 -49 -142 -264 -168 -357 -37 -128 -49 -244 -43
-393 11 -268 78 -437 345 -873 l106 -172 465 2 466 3 3 515 c2 283 0 539 -3
568 l-6 52 -210 0 -209 0 -16 -33 -16 -34 109 -109 c91 -91 116 -123 151 -194
76 -153 90 -308 41 -465 -41 -135 -76 -174 -127 -146 -33 18 -35 46 -8 115 38
94 49 160 43 251 -6 95 -32 171 -88 251 -55 79 -90 115 -176 180 -57 43 -73
61 -73 81 0 14 38 125 84 247 107 280 158 428 185 539 22 85 22 88 4 119 -24
42 -60 66 -108 74 -34 5 -43 2 -61 -18z"/>
<path d="M4096 3320 c-37 -12 -66 -38 -82 -77 -12 -28 -11 -42 11 -125 27
-107 92 -294 194 -559 39 -103 71 -198 71 -212 0 -20 -15 -37 -72 -81 -87 -65
-122 -101 -177 -180 -56 -80 -82 -156 -88 -251 -6 -91 5 -157 43 -251 27 -69
25 -97 -8 -115 -51 -28 -86 11 -127 146 -49 157 -35 312 41 465 35 71 60 103
151 194 l109 109 -16 34 -16 33 -209 0 c-178 0 -210 -2 -215 -15 -3 -9 -6
-265 -6 -570 l0 -555 468 0 468 0 106 173 c268 439 334 604 345 872 6 149 -6
265 -43 393 -26 93 -128 308 -168 357 l-25 30 -1 -327 c0 -373 3 -358 -81
-358 -56 0 -55 1 -23 -79 20 -48 17 -78 -8 -95 -53 -37 -73 -19 -123 111 -169
444 -352 840 -423 916 -27 28 -46 31 -96 17z"/>
<path d="M452 1008 l3 -183 670 0 670 0 3 183 2 182 -675 0 -675 0 2 -182z"/>
<path d="M3462 1008 l3 -183 670 0 670 0 3 183 2 182 -675 0 -675 0 2 -182z"/>
<path d="M1398 523 l-28 -4 0 -235 0 -234 50 0 49 0 3 92 3 93 33 -2 c43 -1
60 -17 73 -67 6 -22 15 -58 20 -78 l10 -38 55 0 56 0 -7 33 c-17 76 -46 155
-64 171 -18 16 -17 18 15 50 43 43 52 92 28 143 -29 57 -69 75 -177 79 -51 1
-104 0 -119 -3z m167 -85 c54 -24 42 -100 -19 -117 -63 -17 -76 -7 -76 58 0
32 3 61 7 64 10 11 60 8 88 -5z"/>
<path d="M1786 523 c-3 -4 -6 -111 -6 -240 l0 -233 155 0 155 0 0 45 0 45
-100 0 -100 0 0 55 0 55 90 0 90 0 0 45 0 45 -91 0 -90 0 3 48 3 47 93 3 93 3
-3 42 -3 42 -142 2 c-77 1 -144 -1 -147 -4z"/>
<path d="M2235 516 c-53 -23 -85 -71 -85 -125 0 -65 26 -96 116 -137 40 -18
77 -40 82 -50 27 -48 -29 -83 -106 -67 -26 6 -55 14 -64 18 -13 5 -19 0 -24
-22 -3 -15 -8 -35 -10 -44 -12 -44 167 -61 241 -23 51 26 89 93 80 143 -11 56
-34 80 -121 122 -70 33 -84 43 -84 63 0 36 23 48 82 44 29 -2 59 -6 67 -9 10
-3 18 10 27 38 l12 42 -30 10 c-42 15 -146 13 -183 -3z"/>
<path d="M2540 360 c0 -98 5 -181 11 -201 28 -82 115 -128 213 -114 62 10 106
41 134 95 20 41 22 58 22 217 l0 172 -47 -2 -48 -2 -5 -165 c-4 -136 -8 -171
-23 -193 -33 -51 -109 -47 -137 8 -11 22 -16 72 -17 184 -2 85 -4 155 -6 156
-1 1 -23 5 -49 7 l-48 6 0 -168z"/>
<path d="M3036 508 c-5 -26 -26 -362 -26 -420 l0 -38 50 0 50 0 1 88 c2 149
13 272 21 237 5 -16 25 -94 45 -173 l37 -143 45 3 45 3 51 168 52 168 6 -107
c4 -59 7 -138 7 -176 l0 -68 56 0 56 0 -6 68 c-3 37 -8 123 -11 192 -3 69 -8
146 -11 172 l-6 46 -61 -3 c-34 -2 -65 -4 -69 -4 -7 -1 -66 -181 -89 -271
l-12 -45 -33 128 c-19 71 -40 143 -48 161 -13 32 -15 33 -79 35 -62 2 -67 1
-71 -21z"/>
<path d="M3617 523 c-4 -3 -7 -111 -7 -240 l0 -233 150 0 150 0 0 45 0 45 -95
0 -95 0 0 55 0 55 85 0 85 0 0 45 0 45 -85 0 -85 0 0 50 0 50 90 0 90 0 0 45
0 45 -138 0 c-76 0 -142 -3 -145 -7z"/>
</g>
</svg>
