<svg width="570" height="555" viewBox="0 0 570 555" fill="none" xmlns="http://www.w3.org/2000/svg">
<path d="M452.865 150.029C431.963 119.196 414.621 80.6356 380.821 61.5794C332.752 34.4787 286.542 71.3251 247.625 97.3312C227.184 110.98 205.425 125.197 180.658 129.153C145.236 134.824 109.26 119.144 74.1412 128.744C14.7966 144.965 -1.43746 217.102 18.5155 268.362C46.2097 339.576 108.192 416.064 120.061 474.09C131.93 532.116 187.318 572.998 282.269 546.622C377.221 520.247 371.946 459.584 456.347 446.396C540.748 433.208 581.63 372.545 567.123 296.056C559.989 258.406 536.858 230.777 506.776 208.596C485.254 192.77 467.82 172.079 452.865 150.029Z" fill="#E9F0F8"/>
<path d="M117.911 29.3483C117.911 29.3483 124.914 23.8227 126.707 20.2752C128.237 17.2552 129.345 12.9824 127.762 9.72506C127.414 8.95909 126.909 8.27484 126.28 7.71672C125.65 7.15859 124.911 6.73907 124.108 6.48538C123.306 6.23169 122.46 6.1495 121.624 6.24415C120.788 6.3388 119.981 6.60817 119.256 7.03477C114.944 9.67231 114.482 18.9037 115.577 23.2556C115.669 23.6381 117.845 29.4538 117.911 29.3483Z" fill="#49D0F9"/>
<path d="M53.1991 75.413C53.4761 75.6767 58.4742 79.2901 58.4742 79.1978C58.4742 79.1055 61.3095 70.7313 60.8348 66.7882C60.4392 63.4253 59.0017 59.2449 55.9158 57.4381C55.2035 56.9864 54.4042 56.6896 53.5698 56.5669C52.7353 56.4442 51.8844 56.4984 51.0723 56.726C50.2601 56.9536 49.505 57.3495 48.8558 57.888C48.2066 58.4264 47.678 59.0954 47.3042 59.8515C45.1942 64.4672 49.8494 72.3402 53.1991 75.413Z" fill="#49D0F9"/>
<path d="M199.873 37.7227C199.873 37.7227 174.249 64.1772 174.381 96.7112C174.513 129.245 200.387 155.436 200.387 155.436C200.387 155.436 226.011 128.981 225.866 96.487C225.72 63.9925 199.873 37.7227 199.873 37.7227Z" fill="#49D0F9"/>
<path d="M163.329 116.137C163.671 115.77 163.984 115.377 164.266 114.963C166.125 112.141 167.721 108.026 166.521 104.65C166.266 103.847 165.845 103.107 165.286 102.477C164.727 101.847 164.041 101.341 163.274 100.993C162.507 100.645 161.675 100.462 160.833 100.456C159.991 100.45 159.156 100.621 158.384 100.958C154.903 102.606 153.188 108.184 152.819 112.747C151.5 112.431 150.181 112.18 149.113 112.009C148.652 110.967 148.19 109.925 147.715 108.883C147.241 107.842 146.858 106.707 146.397 105.613C145.777 103.991 145.223 102.289 144.669 100.588C146.7 99.6783 152.582 96.9221 154.797 94.4824C157.013 92.0426 159.268 88.1523 158.595 84.6312C158.467 83.7974 158.164 83.0002 157.706 82.2914C157.249 81.5827 156.647 80.9784 155.94 80.518C155.233 80.0575 154.437 79.7513 153.604 79.6193C152.771 79.4872 151.919 79.5324 151.104 79.7517C146.238 81.1892 143.377 89.8931 143.284 94.4164C143.284 94.5615 143.284 95.5242 143.456 96.6715C142.968 94.9835 142.467 93.3218 142.031 91.6075C140.779 86.7412 139.658 81.7431 138.51 76.7449C138.273 75.7031 138.022 74.6613 137.772 73.6195C139.486 72.8678 145.909 69.9269 148.216 67.3817C150.524 64.8365 152.674 61.0516 152.001 57.5305C151.875 56.6958 151.573 55.8974 151.116 55.1875C150.659 54.4777 150.057 53.8725 149.35 53.4117C148.642 52.9509 147.846 52.6449 147.012 52.5138C146.178 52.3827 145.325 52.4295 144.511 52.651C139.658 54.0885 136.796 62.7924 136.69 67.3157C136.69 67.4872 136.783 68.6345 136.901 69.9533C136.242 67.2366 135.583 64.5463 134.778 61.8956C133.483 57.3448 131.884 52.8862 129.991 48.5497C130.598 48.2859 138.194 45.0022 140.752 42.1668C143.02 39.648 145.223 35.8235 144.55 32.3024C144.42 31.4696 144.116 30.6736 143.658 29.9659C143.199 29.2583 142.598 28.6548 141.891 28.1947C141.185 27.7346 140.39 27.4281 139.558 27.2952C138.725 27.1622 137.874 27.2058 137.06 27.423C132.193 28.8736 129.332 37.5643 129.239 42.1009C129.239 42.4174 129.609 46.5583 129.793 48.0353V47.8771C127.828 43.6612 125.494 39.6276 122.817 35.8235C120.443 32.4184 117.871 29.1554 115.115 26.0515C112.596 23.137 110.104 20.6313 107.875 18.429C106.675 17.2421 105.541 16.1871 104.473 15.2112H104.578C104.671 15.2112 102.205 9.55367 102.02 9.21079C99.7385 5.25448 93.0391 -0.956922 88.0805 0.124469C87.2594 0.326689 86.4901 0.699839 85.8229 1.21955C85.1558 1.73927 84.6057 2.39385 84.2087 3.14058C83.8117 3.8873 83.5767 4.70937 83.5189 5.5531C83.4612 6.39682 83.5821 7.24324 83.8737 8.03708C84.9814 11.4395 88.7531 13.7473 91.9577 14.8419C95.1623 15.9365 102.402 15.4354 104.17 15.2771C105.264 16.3058 106.411 17.4267 107.651 18.6927C109.814 20.9478 112.24 23.4931 114.693 26.4471C115.353 27.2384 116.012 28.1087 116.685 28.9396C115.274 27.7659 113.309 26.1965 113.098 26.0647C109.273 23.6249 100.451 21.172 96.547 24.4162C95.9144 24.9736 95.406 25.6579 95.0549 26.4245C94.7038 27.1912 94.5179 28.0231 94.5092 28.8663C94.5005 29.7094 94.6692 30.545 95.0044 31.3187C95.3395 32.0925 95.8337 32.7871 96.4547 33.3574C99 35.8631 103.405 36.1664 106.754 35.6785C110.104 35.1905 116.5 31.2606 117.845 30.4034C119.296 32.2761 120.746 34.2278 122.131 36.3511C124.683 40.1604 126.89 44.1898 128.725 48.3914C128.83 48.642 128.91 48.9057 129.002 49.1431C128.408 48.4442 124.848 44.8439 124.558 44.6197C121.023 41.7844 112.531 38.382 108.297 41.1777C107.605 41.6604 107.023 42.2836 106.588 43.0066C106.153 43.7296 105.875 44.5362 105.773 45.3738C105.671 46.2113 105.747 47.061 105.996 47.8672C106.244 48.6735 106.66 49.4184 107.216 50.0531C109.471 52.8225 113.81 53.6137 117.199 53.4819C121.155 53.35 128.778 49.5255 129.068 49.3277C130.797 53.5668 132.247 57.9149 133.407 62.344C134.277 65.6145 135.029 68.9378 135.754 72.3402C134.963 71.4435 131.639 68.107 131.376 67.8828C127.841 65.0475 119.349 61.645 115.102 64.4408C114.412 64.9248 113.831 65.5485 113.397 66.2715C112.963 66.9946 112.687 67.8007 112.585 68.6376C112.483 69.4746 112.558 70.3236 112.805 71.1296C113.053 71.9356 113.467 72.6806 114.021 73.3161C116.289 76.0856 120.615 76.8768 124.017 76.7449C127.815 76.6131 135.2 72.9337 135.886 72.6172C136.216 74.147 136.545 75.6767 136.862 77.2197C137.904 82.231 138.919 87.2687 140.066 92.2009C140.475 93.9153 140.924 95.5901 141.385 97.265C140.146 95.9462 137.838 93.6384 137.627 93.4669C134.092 90.6184 125.586 87.216 121.353 90.0117C120.661 90.4944 120.079 91.1176 119.644 91.8406C119.209 92.5636 118.931 93.3702 118.829 94.2078C118.727 95.0453 118.803 95.895 119.051 96.7012C119.3 97.5075 119.716 98.2524 120.272 98.8871C122.527 101.67 126.866 102.448 130.255 102.329C133.644 102.21 139.921 99.2431 141.675 98.3727C142.453 101.155 143.271 103.898 144.221 106.562C144.656 107.696 145.012 108.883 145.539 109.952L146.265 111.653L145.276 111.56C145.276 111.56 145.276 113.156 145.368 115.728C141.636 113.09 136.255 110.782 132.76 112.391C132.004 112.765 131.335 113.294 130.797 113.943C130.258 114.592 129.863 115.347 129.635 116.159C129.407 116.971 129.353 117.822 129.476 118.657C129.599 119.491 129.895 120.291 130.347 121.003C130.572 121.383 130.832 121.741 131.125 122.071C131.789 126.007 133.45 129.708 135.952 132.819C136.136 133.03 138.669 135.377 140 136.538C138.682 135.852 137.442 135.219 136.123 134.415C134.224 133.36 132.246 132.186 130.321 131.052L127.248 129.087C126.233 128.467 125.336 127.768 124.36 127.082C122.949 126.067 121.551 124.959 120.153 123.838C121.34 121.966 124.742 116.413 125.243 113.169C125.745 109.925 125.468 105.415 122.962 102.857C122.398 102.23 121.709 101.728 120.938 101.385C120.168 101.042 119.335 100.865 118.491 100.865C117.648 100.865 116.814 101.042 116.044 101.385C115.274 101.728 114.585 102.23 114.021 102.857C110.763 106.813 113.177 115.583 115.59 119.42C115.669 119.539 116.263 120.304 116.909 121.187C115.59 120.066 114.271 118.946 112.953 117.759C109.234 114.383 105.541 110.835 101.822 107.301L99.5538 105.151C100.569 103.582 104.301 97.5947 104.829 94.2054C105.356 90.8162 105.053 86.4511 102.561 83.8795C101.997 83.2527 101.307 82.7514 100.537 82.4083C99.7669 82.0652 98.9332 81.8879 98.09 81.8879C97.2468 81.8879 96.4131 82.0652 95.6429 82.4083C94.8727 82.7514 94.1833 83.2527 93.6194 83.8795C90.362 87.8358 92.7754 96.5924 95.1887 100.43C95.2678 100.575 95.98 101.472 96.7844 102.474C94.7403 100.588 92.6831 98.7156 90.573 96.9353C86.9821 93.8539 83.1887 91.0166 79.2184 88.4424C79.5745 87.8885 84.0979 80.9518 84.6781 77.1801C85.1793 73.8305 84.9023 69.4258 82.3966 66.8674C81.8339 66.2409 81.1456 65.7398 80.3765 65.3968C79.6074 65.0539 78.7747 64.8766 77.9326 64.8766C77.0905 64.8766 76.2578 65.0539 75.4887 65.3968C74.7196 65.7398 74.0313 66.2409 73.4686 66.8674C70.198 70.8237 72.6114 79.5935 75.0247 83.4311C75.1962 83.6948 77.8073 86.9522 78.77 88.0732L78.625 87.9808C74.6648 85.5421 70.494 83.4633 66.1626 81.7694C62.286 80.2227 58.323 78.9017 54.2937 77.8131C50.5748 76.7713 47.1196 76.0592 44.06 75.4394C42.3852 75.1229 40.8686 74.8723 39.4312 74.6349H39.5235C39.5894 74.6349 34.4198 71.2193 34.0638 71.0479C30.0152 69.0301 20.9816 67.5267 17.4341 71.1534C16.8633 71.7739 16.4293 72.5076 16.1604 73.3068C15.8915 74.106 15.7937 74.9528 15.8732 75.7922C15.9528 76.6316 16.2081 77.445 16.6224 78.1794C17.0367 78.9137 17.6008 79.5528 18.2781 80.055C21.0871 82.2838 25.4918 82.1255 28.8283 81.2815C32.1647 80.4375 37.8618 76.0064 39.2465 74.8987C40.7236 75.1624 42.3061 75.4657 44.0469 75.835C47.0932 76.5076 50.522 77.2988 54.1882 78.4725C55.1773 78.7758 56.2191 79.1319 57.2346 79.4484C55.4015 79.2638 52.8958 79.0264 52.6452 79.0264C48.1219 79.1187 39.4575 81.9277 37.941 86.794C37.7172 87.6066 37.6675 88.4573 37.7952 89.2905C37.9228 90.1237 38.225 90.9205 38.6819 91.6288C39.1387 92.3371 39.74 92.941 40.4464 93.401C41.1527 93.8609 41.9482 94.1665 42.7808 94.2977C46.3019 94.9835 50.1396 92.8075 52.6584 90.5524C55.1773 88.2973 58.3423 81.4925 59.0017 80.0023C61.2436 80.754 63.5251 81.5848 65.8461 82.6398C70.0845 84.408 74.1579 86.5484 78.0183 89.0359C78.2425 89.1809 78.4535 89.3655 78.6777 89.5106C77.7941 89.26 72.8356 88.1918 72.4795 88.1918C67.9693 87.7698 59.0017 89.6161 57.0104 94.2846C56.6979 95.0658 56.5537 95.9041 56.587 96.7449C56.6204 97.5856 56.8305 98.4099 57.2038 99.1639C57.5771 99.918 58.1052 100.585 58.7535 101.121C59.4019 101.657 60.156 102.051 60.9667 102.276C64.3955 103.344 68.4441 101.604 71.2003 99.6388C74.3785 97.3705 78.6382 89.8931 78.7964 89.6161C82.5771 92.2002 86.185 95.0284 89.5971 98.0826C92.1292 100.338 94.6085 102.711 97.0746 105.125C95.914 104.822 91.3115 103.806 90.9686 103.806C86.4585 103.384 77.4908 105.23 75.4995 109.899C75.1891 110.681 75.0465 111.52 75.0807 112.361C75.1149 113.202 75.3253 114.026 75.6982 114.781C76.0711 115.535 76.5983 116.203 77.2455 116.741C77.8928 117.279 78.6458 117.675 79.4558 117.904C82.8846 118.972 86.9332 117.231 89.6894 115.266C92.7885 113.051 96.9031 105.916 97.2592 105.309L100.609 108.606C104.235 112.22 107.862 115.86 111.555 119.341C112.873 120.541 114.192 121.689 115.432 122.836C113.678 122.44 110.473 121.768 110.157 121.741C105.633 121.332 96.6789 123.179 94.6744 127.847C94.3641 128.629 94.2215 129.467 94.2559 130.307C94.2902 131.147 94.5007 131.97 94.8737 132.724C95.2468 133.477 95.774 134.144 96.4212 134.681C97.0684 135.217 97.8212 135.612 98.6307 135.839C102.046 136.907 106.108 135.166 108.864 133.201C111.621 131.236 115.221 125.289 116.21 123.614C118.386 125.5 120.588 127.333 122.804 129.034C123.793 129.746 124.756 130.538 125.745 131.171L128.659 133.122C130.69 134.441 132.615 135.562 134.514 136.683C135.477 137.263 136.4 137.778 137.35 138.331C135.635 137.659 132.905 136.643 132.642 136.577C128.25 135.483 119.098 135.944 116.421 140.257C115.996 140.985 115.729 141.795 115.638 142.633C115.547 143.472 115.634 144.32 115.893 145.122C116.152 145.925 116.577 146.664 117.14 147.291C117.704 147.919 118.393 148.42 119.164 148.763C122.382 150.345 126.655 149.238 129.714 147.708C133.037 146.02 138.049 139.795 138.655 139.057C140.99 140.376 143.271 141.694 145.421 142.802C151.17 145.888 156.195 148.341 160.085 150.161C172.745 161.107 190.562 162.32 190.562 162.32C190.562 162.32 191.498 140.982 178.944 126.937C174.587 122.243 169.259 118.557 163.329 116.137ZM140.739 136.934C141.135 136.063 144.168 129.285 144.379 125.46C145.078 125.328 145.79 125.183 146.476 125.025C147.775 131.772 150.47 138.173 154.388 143.818C152.08 142.723 149.588 141.51 146.95 140.165C144.919 139.162 142.849 138.081 140.739 136.934Z" fill="#49D0F9"/>
<path d="M256.685 112.048C256.685 112.048 235.334 112.708 222.265 126.278C209.196 139.848 209.368 161.212 209.368 161.212C209.368 161.212 230.719 160.553 243.774 146.983C256.83 133.412 256.685 112.048 256.685 112.048Z" fill="#49D0F9"/>
<g opacity="0.5">
<path opacity="0.5" d="M117.911 29.3483C117.911 29.3483 124.914 23.8227 126.707 20.2752C128.237 17.2552 129.345 12.9824 127.762 9.72506C127.414 8.95909 126.909 8.27484 126.28 7.71672C125.65 7.15859 124.911 6.73907 124.108 6.48538C123.306 6.23169 122.46 6.1495 121.624 6.24415C120.788 6.3388 119.981 6.60817 119.256 7.03477C114.944 9.67231 114.482 18.9037 115.577 23.2556C115.669 23.6381 117.845 29.4538 117.911 29.3483Z" fill="white"/>
<path opacity="0.5" d="M53.1991 75.413C53.4761 75.6767 58.4742 79.2901 58.4742 79.1978C58.4742 79.1055 61.3095 70.7313 60.8348 66.7882C60.4392 63.4253 59.0017 59.2449 55.9158 57.4381C55.2035 56.9864 54.4042 56.6896 53.5698 56.5669C52.7353 56.4442 51.8844 56.4984 51.0723 56.726C50.2601 56.9536 49.505 57.3495 48.8558 57.888C48.2066 58.4264 47.678 59.0954 47.3042 59.8515C45.1942 64.4672 49.8494 72.3402 53.1991 75.413Z" fill="white"/>
<path opacity="0.5" d="M199.873 37.7227C199.873 37.7227 174.249 64.1772 174.381 96.7112C174.513 129.245 200.387 155.436 200.387 155.436C200.387 155.436 226.011 128.981 225.866 96.487C225.72 63.9925 199.873 37.7227 199.873 37.7227Z" fill="white"/>
<path opacity="0.5" d="M163.329 116.137C163.671 115.77 163.984 115.377 164.266 114.963C166.125 112.141 167.721 108.026 166.521 104.65C166.266 103.847 165.845 103.107 165.286 102.477C164.727 101.847 164.041 101.341 163.274 100.993C162.507 100.645 161.675 100.462 160.833 100.456C159.991 100.45 159.156 100.621 158.384 100.958C154.903 102.606 153.188 108.184 152.819 112.747C151.5 112.431 150.181 112.18 149.113 112.009C148.652 110.967 148.19 109.925 147.715 108.883C147.241 107.842 146.858 106.707 146.397 105.613C145.777 103.991 145.223 102.289 144.669 100.588C146.7 99.6783 152.582 96.9221 154.797 94.4824C157.013 92.0426 159.268 88.1523 158.595 84.6312C158.467 83.7974 158.164 83.0002 157.706 82.2914C157.249 81.5827 156.647 80.9784 155.94 80.518C155.233 80.0575 154.437 79.7513 153.604 79.6193C152.771 79.4872 151.919 79.5324 151.104 79.7517C146.238 81.1892 143.377 89.8931 143.284 94.4164C143.284 94.5615 143.284 95.5242 143.456 96.6715C142.968 94.9835 142.467 93.3218 142.031 91.6075C140.779 86.7412 139.658 81.7431 138.51 76.7449C138.273 75.7031 138.022 74.6613 137.772 73.6195C139.486 72.8678 145.909 69.9269 148.216 67.3817C150.524 64.8365 152.674 61.0516 152.001 57.5305C151.875 56.6958 151.573 55.8974 151.116 55.1875C150.659 54.4777 150.057 53.8725 149.35 53.4117C148.642 52.9509 147.846 52.6449 147.012 52.5138C146.178 52.3827 145.325 52.4295 144.511 52.651C139.658 54.0885 136.796 62.7924 136.69 67.3157C136.69 67.4872 136.783 68.6345 136.901 69.9533C136.242 67.2366 135.583 64.5463 134.778 61.8956C133.483 57.3448 131.884 52.8862 129.991 48.5497C130.598 48.2859 138.194 45.0022 140.752 42.1668C143.02 39.648 145.223 35.8235 144.55 32.3024C144.42 31.4696 144.116 30.6736 143.658 29.9659C143.199 29.2583 142.598 28.6548 141.891 28.1947C141.185 27.7346 140.39 27.4281 139.558 27.2952C138.725 27.1622 137.874 27.2058 137.06 27.423C132.193 28.8736 129.332 37.5643 129.239 42.1009C129.239 42.4174 129.609 46.5583 129.793 48.0353V47.8771C127.828 43.6612 125.494 39.6276 122.817 35.8235C120.443 32.4184 117.871 29.1554 115.115 26.0515C112.596 23.137 110.104 20.6313 107.875 18.429C106.675 17.2421 105.541 16.1871 104.473 15.2112H104.578C104.671 15.2112 102.205 9.55367 102.02 9.21079C99.7385 5.25448 93.0391 -0.956922 88.0805 0.124469C87.2594 0.326689 86.4901 0.699839 85.8229 1.21955C85.1558 1.73927 84.6057 2.39385 84.2087 3.14058C83.8117 3.8873 83.5767 4.70937 83.5189 5.5531C83.4612 6.39682 83.5821 7.24324 83.8737 8.03708C84.9814 11.4395 88.7531 13.7473 91.9577 14.8419C95.1623 15.9365 102.402 15.4354 104.17 15.2771C105.264 16.3058 106.411 17.4267 107.651 18.6927C109.814 20.9478 112.24 23.4931 114.693 26.4471C115.353 27.2384 116.012 28.1087 116.685 28.9396C115.274 27.7659 113.309 26.1965 113.098 26.0647C109.273 23.6249 100.451 21.172 96.547 24.4162C95.9144 24.9736 95.406 25.6579 95.0549 26.4245C94.7038 27.1912 94.5179 28.0231 94.5092 28.8663C94.5005 29.7094 94.6692 30.545 95.0044 31.3187C95.3395 32.0925 95.8337 32.7871 96.4547 33.3574C99 35.8631 103.405 36.1664 106.754 35.6785C110.104 35.1905 116.5 31.2606 117.845 30.4034C119.296 32.2761 120.746 34.2278 122.131 36.3511C124.683 40.1604 126.89 44.1898 128.725 48.3914C128.83 48.642 128.91 48.9057 129.002 49.1431C128.408 48.4442 124.848 44.8439 124.558 44.6197C121.023 41.7844 112.531 38.382 108.297 41.1777C107.605 41.6604 107.023 42.2836 106.588 43.0066C106.153 43.7296 105.875 44.5362 105.773 45.3738C105.671 46.2113 105.747 47.061 105.996 47.8672C106.244 48.6735 106.66 49.4184 107.216 50.0531C109.471 52.8225 113.81 53.6137 117.199 53.4819C121.155 53.35 128.778 49.5255 129.068 49.3277C130.797 53.5668 132.247 57.9149 133.407 62.344C134.277 65.6145 135.029 68.9378 135.754 72.3402C134.963 71.4435 131.639 68.107 131.376 67.8828C127.841 65.0475 119.349 61.645 115.102 64.4408C114.412 64.9248 113.831 65.5485 113.397 66.2715C112.963 66.9946 112.687 67.8007 112.585 68.6376C112.483 69.4746 112.558 70.3236 112.805 71.1296C113.053 71.9356 113.467 72.6806 114.021 73.3161C116.289 76.0856 120.615 76.8768 124.017 76.7449C127.815 76.6131 135.2 72.9337 135.886 72.6172C136.216 74.147 136.545 75.6767 136.862 77.2197C137.904 82.231 138.919 87.2687 140.066 92.2009C140.475 93.9153 140.924 95.5901 141.385 97.265C140.146 95.9462 137.838 93.6384 137.627 93.4669C134.092 90.6184 125.586 87.216 121.353 90.0117C120.661 90.4944 120.079 91.1176 119.644 91.8406C119.209 92.5636 118.931 93.3702 118.829 94.2078C118.727 95.0453 118.803 95.895 119.051 96.7012C119.3 97.5075 119.716 98.2524 120.272 98.8871C122.527 101.67 126.866 102.448 130.255 102.329C133.644 102.21 139.921 99.2431 141.675 98.3727C142.453 101.155 143.271 103.898 144.221 106.562C144.656 107.696 145.012 108.883 145.539 109.952L146.265 111.653L145.276 111.56C145.276 111.56 145.276 113.156 145.368 115.728C141.636 113.09 136.255 110.782 132.76 112.391C132.004 112.765 131.335 113.294 130.797 113.943C130.258 114.592 129.863 115.347 129.635 116.159C129.407 116.971 129.353 117.822 129.476 118.657C129.599 119.491 129.895 120.291 130.347 121.003C130.572 121.383 130.832 121.741 131.125 122.071C131.789 126.007 133.45 129.708 135.952 132.819C136.136 133.03 138.669 135.377 140 136.538C138.682 135.852 137.442 135.219 136.123 134.415C134.224 133.36 132.246 132.186 130.321 131.052L127.248 129.087C126.233 128.467 125.336 127.768 124.36 127.082C122.949 126.067 121.551 124.959 120.153 123.838C121.34 121.966 124.742 116.413 125.243 113.169C125.745 109.925 125.468 105.415 122.962 102.857C122.398 102.23 121.709 101.728 120.938 101.385C120.168 101.042 119.335 100.865 118.491 100.865C117.648 100.865 116.814 101.042 116.044 101.385C115.274 101.728 114.585 102.23 114.021 102.857C110.763 106.813 113.177 115.583 115.59 119.42C115.669 119.539 116.263 120.304 116.909 121.187C115.59 120.066 114.271 118.946 112.953 117.759C109.234 114.383 105.541 110.835 101.822 107.301L99.5538 105.151C100.569 103.582 104.301 97.5947 104.829 94.2054C105.356 90.8162 105.053 86.4511 102.561 83.8795C101.997 83.2527 101.307 82.7514 100.537 82.4083C99.7669 82.0652 98.9332 81.8879 98.09 81.8879C97.2468 81.8879 96.4131 82.0652 95.6429 82.4083C94.8727 82.7514 94.1833 83.2527 93.6194 83.8795C90.362 87.8358 92.7754 96.5924 95.1887 100.43C95.2678 100.575 95.98 101.472 96.7844 102.474C94.7403 100.588 92.6831 98.7156 90.573 96.9353C86.9821 93.8539 83.1887 91.0166 79.2184 88.4424C79.5745 87.8885 84.0979 80.9518 84.6781 77.1801C85.1793 73.8305 84.9023 69.4258 82.3966 66.8674C81.8339 66.2409 81.1456 65.7398 80.3765 65.3968C79.6074 65.0539 78.7747 64.8766 77.9326 64.8766C77.0905 64.8766 76.2578 65.0539 75.4887 65.3968C74.7196 65.7398 74.0313 66.2409 73.4686 66.8674C70.198 70.8237 72.6114 79.5935 75.0247 83.4311C75.1962 83.6948 77.8073 86.9522 78.77 88.0732L78.625 87.9808C74.6648 85.5421 70.494 83.4633 66.1626 81.7694C62.286 80.2227 58.323 78.9017 54.2937 77.8131C50.5748 76.7713 47.1196 76.0592 44.06 75.4394C42.3852 75.1229 40.8686 74.8723 39.4312 74.6349H39.5235C39.5894 74.6349 34.4198 71.2193 34.0638 71.0479C30.0152 69.0301 20.9816 67.5267 17.4341 71.1534C16.8633 71.7739 16.4293 72.5076 16.1604 73.3068C15.8915 74.106 15.7937 74.9528 15.8732 75.7922C15.9528 76.6316 16.2081 77.445 16.6224 78.1794C17.0367 78.9137 17.6008 79.5528 18.2781 80.055C21.0871 82.2838 25.4918 82.1255 28.8283 81.2815C32.1647 80.4375 37.8618 76.0064 39.2465 74.8987C40.7236 75.1624 42.3061 75.4657 44.0469 75.835C47.0932 76.5076 50.522 77.2988 54.1882 78.4725C55.1773 78.7758 56.2191 79.1319 57.2346 79.4484C55.4015 79.2638 52.8958 79.0264 52.6452 79.0264C48.1219 79.1187 39.4575 81.9277 37.941 86.794C37.7172 87.6066 37.6675 88.4573 37.7952 89.2905C37.9228 90.1237 38.225 90.9205 38.6819 91.6288C39.1387 92.3371 39.74 92.941 40.4464 93.401C41.1527 93.8609 41.9482 94.1665 42.7808 94.2977C46.3019 94.9835 50.1396 92.8075 52.6584 90.5524C55.1773 88.2973 58.3423 81.4925 59.0017 80.0023C61.2436 80.754 63.5251 81.5848 65.8461 82.6398C70.0845 84.408 74.1579 86.5484 78.0183 89.0359C78.2425 89.1809 78.4535 89.3655 78.6777 89.5106C77.7941 89.26 72.8356 88.1918 72.4795 88.1918C67.9693 87.7698 59.0017 89.6161 57.0104 94.2846C56.6979 95.0658 56.5537 95.9041 56.587 96.7449C56.6204 97.5856 56.8305 98.4099 57.2038 99.1639C57.5771 99.918 58.1052 100.585 58.7535 101.121C59.4019 101.657 60.156 102.051 60.9667 102.276C64.3955 103.344 68.4441 101.604 71.2003 99.6388C74.3785 97.3705 78.6382 89.8931 78.7964 89.6161C82.5771 92.2002 86.185 95.0284 89.5971 98.0826C92.1292 100.338 94.6085 102.711 97.0746 105.125C95.914 104.822 91.3115 103.806 90.9686 103.806C86.4585 103.384 77.4908 105.23 75.4995 109.899C75.1891 110.681 75.0465 111.52 75.0807 112.361C75.1149 113.202 75.3253 114.026 75.6982 114.781C76.0711 115.535 76.5983 116.203 77.2455 116.741C77.8928 117.279 78.6458 117.675 79.4558 117.904C82.8846 118.972 86.9332 117.231 89.6894 115.266C92.7885 113.051 96.9031 105.916 97.2592 105.309L100.609 108.606C104.235 112.22 107.862 115.86 111.555 119.341C112.873 120.541 114.192 121.689 115.432 122.836C113.678 122.44 110.473 121.768 110.157 121.741C105.633 121.332 96.6789 123.179 94.6744 127.847C94.3641 128.629 94.2215 129.467 94.2559 130.307C94.2902 131.147 94.5007 131.97 94.8737 132.724C95.2468 133.477 95.774 134.144 96.4212 134.681C97.0684 135.217 97.8212 135.612 98.6307 135.839C102.046 136.907 106.108 135.166 108.864 133.201C111.621 131.236 115.221 125.289 116.21 123.614C118.386 125.5 120.588 127.333 122.804 129.034C123.793 129.746 124.756 130.538 125.745 131.171L128.659 133.122C130.69 134.441 132.615 135.562 134.514 136.683C135.477 137.263 136.4 137.778 137.35 138.331C135.635 137.659 132.905 136.643 132.642 136.577C128.25 135.483 119.098 135.944 116.421 140.257C115.996 140.985 115.729 141.795 115.638 142.633C115.547 143.472 115.634 144.32 115.893 145.122C116.152 145.925 116.577 146.664 117.14 147.291C117.704 147.919 118.393 148.42 119.164 148.763C122.382 150.345 126.655 149.238 129.714 147.708C133.037 146.02 138.049 139.795 138.655 139.057C140.99 140.376 143.271 141.694 145.421 142.802C151.17 145.888 156.195 148.341 160.085 150.161C172.745 161.107 190.562 162.32 190.562 162.32C190.562 162.32 191.498 140.982 178.944 126.937C174.587 122.243 169.259 118.557 163.329 116.137ZM140.739 136.934C141.135 136.063 144.168 129.285 144.379 125.46C145.078 125.328 145.79 125.183 146.476 125.025C147.775 131.772 150.47 138.173 154.388 143.818C152.08 142.723 149.588 141.51 146.95 140.165C144.919 139.162 142.849 138.081 140.739 136.934Z" fill="white"/>
<path opacity="0.5" d="M256.685 112.048C256.685 112.048 235.334 112.708 222.265 126.278C209.196 139.848 209.368 161.212 209.368 161.212C209.368 161.212 230.719 160.553 243.774 146.983C256.83 133.412 256.685 112.048 256.685 112.048Z" fill="white"/>
</g>
<path d="M200.928 125.803L221.896 106.958L220.999 105.956L200.914 124.01L200.809 99.296L200.928 99.3751L218.652 73.4481L217.544 72.6832L200.809 97.1596L200.545 37.7227H199.2L199.371 78.077L186.026 66.5246L185.155 67.54L199.385 79.8573L199.503 108.712L179.273 90.8031L178.39 91.8186L199.517 110.506L199.622 136.775L184.417 124.841L183.599 125.909L199.635 138.49L199.714 155.396H201.059L200.928 125.803Z" fill="white"/>
<path d="M181.608 133.083L180.276 132.924L178.588 147.853L169.58 137.791H169.607L167.312 119.723L165.98 119.895L168.024 136.05L145.645 111.033L144.643 111.929L159.835 128.902L150.221 129.021L150.234 130.366L161.022 130.234L171.664 142.142L156.63 142.156V143.501L172.864 143.488L182.544 154.302L171.941 154.948L172.033 156.28L183.691 155.581L190.14 162.794L191.142 161.898L179.788 149.198L181.608 133.083Z" fill="white"/>
<path d="M232.275 138.397L250.131 134.784L249.854 133.465L233.897 136.696L257.16 112.523L256.197 111.586L240.412 127.992L239.568 118.418L238.236 118.536L239.172 129.284L228.094 140.784L226.96 125.79L225.615 125.895L226.841 142.09L216.779 152.547L215.355 142.024L214.01 142.195L215.592 153.787L208.88 160.75L209.842 161.673L221.659 149.409L237.866 150.029L237.919 148.683L222.911 148.116L232.275 138.384V138.397Z" fill="white"/>
<path d="M265.587 519.693L108.521 232.954L0 269.681L35.1979 338.125L32.9692 334.301L26.3754 336.49C25.7189 336.71 25.1177 337.069 24.613 337.543C24.1083 338.017 23.7121 338.594 23.4515 339.236C23.191 339.877 23.0722 340.567 23.1034 341.259C23.1346 341.95 23.3151 342.627 23.6323 343.242L40.9873 376.99C42.0936 379.148 43.858 380.897 46.025 381.986C48.1921 383.074 50.6494 383.444 53.0409 383.043L57.8544 382.238L142.387 546.623L265.587 519.693Z" fill="#2E353A"/>
<path d="M367.053 109.148C365.365 110.07 363.38 110.285 361.533 109.747C359.686 109.208 358.129 107.958 357.202 106.273L353.179 98.9272L108.521 232.954L265.587 519.694L510.258 385.68L424.749 229.578C423.827 227.892 423.612 225.908 424.151 224.064C424.69 222.219 425.939 220.664 427.624 219.74C428.46 219.282 429.197 218.664 429.794 217.921C430.391 217.178 430.836 216.325 431.103 215.41C431.37 214.495 431.454 213.536 431.35 212.589C431.247 211.642 430.957 210.724 430.499 209.888L376.891 112.023C375.966 110.338 374.411 109.089 372.567 108.55C370.722 108.011 368.739 108.226 367.053 109.148V109.148Z" fill="#49D0F9" stroke="#2E353A" stroke-linecap="round" stroke-linejoin="round"/>
<path d="M379.224 119.728L180.521 190.561L275.395 456.702L474.097 385.869L379.224 119.728Z" fill="white" stroke="#2E353A" stroke-linecap="round" stroke-linejoin="round"/>
<path d="M379.234 119.737L180.532 190.57L215.483 288.617L414.186 217.784L379.234 119.737Z" fill="white" stroke="#2E353A" stroke-linecap="round" stroke-linejoin="round"/>
<path d="M363.855 220.467C378.692 211.047 383.084 191.383 373.664 176.546C364.245 161.709 344.581 157.317 329.743 166.736C314.906 176.156 310.514 195.82 319.934 210.657C329.354 225.494 349.018 229.886 363.855 220.467Z" fill="#2E353A" stroke="#2E353A" stroke-linecap="round" stroke-linejoin="round"/>
<path d="M357.479 223.617C361.89 222.049 365.9 219.525 369.222 216.226C372.544 212.927 375.095 208.935 376.693 204.534C371.167 192.164 357.663 185.715 345.504 190.028C333.345 194.34 326.976 207.91 330.523 220.979C334.544 223.378 339.046 224.859 343.706 225.315C348.366 225.771 353.069 225.191 357.479 223.617Z" fill="white" stroke="#2E353A" stroke-linecap="round" stroke-linejoin="round"/>
<path d="M355.347 199.779C362.023 193.881 362.653 183.688 356.756 177.013C350.858 170.337 340.666 169.707 333.99 175.605C327.315 181.502 326.684 191.695 332.582 198.37C338.479 205.046 348.672 205.676 355.347 199.779Z" fill="white" stroke="#2E353A" stroke-linecap="round" stroke-linejoin="round"/>
<path d="M279.983 194.45L210.444 219.239L213.292 227.227L282.83 202.438L279.983 194.45Z" fill="white" stroke="#2E353A" stroke-linecap="round" stroke-linejoin="round"/>
<path d="M286.833 213.641L217.295 238.43L220.142 246.418L289.68 221.629L286.833 213.641Z" fill="white" stroke="#2E353A" stroke-linecap="round" stroke-linejoin="round"/>
<path d="M292.517 229.614L222.979 254.403L224.405 258.403L293.943 233.614L292.517 229.614Z" fill="#2E353A"/>
<path d="M295.938 239.212L226.4 264L227.826 268L297.364 243.211L295.938 239.212Z" fill="#2E353A"/>
<path d="M313.319 287.968L243.78 312.757L245.206 316.757L314.745 291.968L313.319 287.968Z" fill="#2E353A"/>
<path d="M316.446 296.769L246.908 321.558L248.334 325.558L317.872 300.769L316.446 296.769Z" fill="#2E353A"/>
<path d="M319.587 305.557L250.048 330.346L251.474 334.346L321.013 309.557L319.587 305.557Z" fill="#2E353A"/>
<path d="M407.634 254.342L338.096 279.13L339.522 283.13L409.06 258.341L407.634 254.342Z" fill="#2E353A"/>
<path d="M410.775 263.143L341.236 287.932L342.662 291.932L412.201 267.143L410.775 263.143Z" fill="#2E353A"/>
<path d="M413.903 271.935L344.365 296.724L345.791 300.724L415.329 275.935L413.903 271.935Z" fill="#2E353A"/>
<path d="M239.317 305.368L407.183 245.548" stroke="#2E353A" stroke-linecap="round" stroke-linejoin="round"/>
<path d="M329.56 333.528L260.022 358.317L261.448 362.317L330.986 337.528L329.56 333.528Z" fill="#2E353A"/>
<path d="M332.689 342.333L263.15 367.122L264.576 371.122L334.115 346.333L332.689 342.333Z" fill="#2E353A"/>
<path d="M335.829 351.121L266.291 375.91L267.717 379.91L337.255 355.121L335.829 351.121Z" fill="#2E353A"/>
<path d="M423.877 299.906L354.339 324.695L355.764 328.695L425.303 303.906L423.877 299.906Z" fill="#2E353A"/>
<path d="M427.018 308.707L357.479 333.496L358.905 337.495L428.443 312.707L427.018 308.707Z" fill="#2E353A"/>
<path d="M430.146 317.499L360.607 342.288L362.033 346.287L431.572 321.499L430.146 317.499Z" fill="#2E353A"/>
<path d="M255.551 350.931L423.417 291.111" stroke="#2E353A" stroke-linecap="round" stroke-linejoin="round"/>
<path d="M436.412 335.069L271.745 393.769L285.991 433.73L450.657 375.03L436.412 335.069Z" fill="#2E353A" stroke="#2E353A" stroke-linecap="round" stroke-linejoin="round"/>
<path d="M353.215 136.2L159.337 219.336L270.69 479.015L464.567 395.879L353.215 136.2Z" fill="white" stroke="#2E353A" stroke-linecap="round" stroke-linejoin="round"/>
<path d="M353.225 136.203L159.347 219.339L200.37 315.005L394.247 231.869L353.225 136.203Z" fill="white" stroke="#2E353A" stroke-linecap="round" stroke-linejoin="round"/>
<path d="M352.376 228.975C361.756 214.113 357.313 194.46 342.451 185.079C327.589 175.699 307.937 180.142 298.556 195.004C289.176 209.866 293.619 229.518 308.481 238.899C323.342 248.28 342.995 243.836 352.376 228.975Z" fill="#2E353A" stroke="#2E353A" stroke-linecap="round" stroke-linejoin="round"/>
<path d="M338.014 241.248C342.318 239.406 346.161 236.634 349.269 233.132C352.376 229.631 354.671 225.485 355.988 220.992C349.711 209.005 335.824 203.4 323.969 208.49C312.113 213.581 306.601 227.494 310.952 240.312C315.116 242.451 319.7 243.644 324.378 243.806C329.056 243.968 333.712 243.095 338.014 241.248V241.248Z" fill="white" stroke="#2E353A" stroke-linecap="round" stroke-linejoin="round"/>
<path d="M333.973 217.957C340.487 211.881 340.842 201.675 334.765 195.162C328.689 188.648 318.484 188.294 311.97 194.37C305.457 200.446 305.102 210.652 311.178 217.165C317.254 223.679 327.46 224.033 333.973 217.957Z" fill="white" stroke="#2E353A" stroke-linecap="round" stroke-linejoin="round"/>
<path d="M258.842 217L190.992 246.094L194.334 253.888L262.184 224.793L258.842 217Z" fill="white" stroke="#2E353A" stroke-linecap="round" stroke-linejoin="round"/>
<path d="M266.872 235.715L199.023 264.81L202.364 272.603L270.214 243.508L266.872 235.715Z" fill="white" stroke="#2E353A" stroke-linecap="round" stroke-linejoin="round"/>
<path d="M273.564 251.306L205.714 280.4L207.388 284.303L275.237 255.209L273.564 251.306Z" fill="#2E353A"/>
<path d="M277.576 260.665L209.726 289.76L211.399 293.663L279.249 264.568L277.576 260.665Z" fill="#2E353A"/>
<path d="M297.981 308.239L230.132 337.333L231.805 341.236L299.655 312.142L297.981 308.239Z" fill="#2E353A"/>
<path d="M301.66 316.815L233.811 345.91L235.484 349.812L303.334 320.718L301.66 316.815Z" fill="#2E353A"/>
<path d="M305.327 325.41L237.478 354.505L239.151 358.408L307.001 329.313L305.327 325.41Z" fill="#2E353A"/>
<path d="M389.998 268.794L322.148 297.889L323.822 301.791L391.672 272.697L389.998 268.794Z" fill="#2E353A"/>
<path d="M393.672 277.359L325.822 306.454L327.496 310.356L395.346 281.262L393.672 277.359Z" fill="#2E353A"/>
<path d="M397.364 285.949L329.515 315.044L331.188 318.947L399.038 289.852L397.364 285.949Z" fill="#2E353A"/>
<path d="M225.206 330.239L388.997 260.015" stroke="#2E353A" stroke-linecap="round" stroke-linejoin="round"/>
<path d="M317.037 352.702L249.187 381.797L250.861 385.7L318.711 356.605L317.037 352.702Z" fill="#2E353A"/>
<path d="M320.724 361.267L252.874 390.362L254.548 394.265L322.398 365.17L320.724 361.267Z" fill="#2E353A"/>
<path d="M324.403 369.857L256.553 398.951L258.227 402.854L326.077 373.759L324.403 369.857Z" fill="#2E353A"/>
<path d="M409.074 313.241L341.224 342.335L342.898 346.238L410.748 317.144L409.074 313.241Z" fill="#2E353A"/>
<path d="M412.748 321.806L344.898 350.9L346.572 354.803L414.421 325.709L412.748 321.806Z" fill="#2E353A"/>
<path d="M416.415 330.4L348.565 359.495L350.239 363.397L418.089 334.303L416.415 330.4Z" fill="#2E353A"/>
<path d="M244.262 374.695L408.053 304.47" stroke="#2E353A" stroke-linecap="round" stroke-linejoin="round"/>
<path d="M423.78 347.545L263.112 416.44L279.832 455.431L440.499 386.536L423.78 347.545Z" fill="#2E353A" stroke="#2E353A" stroke-linecap="round" stroke-linejoin="round"/>
<path d="M308.88 134.482L131.942 249.343L285.786 486.333L462.724 371.472L308.88 134.482Z" fill="white" stroke="#2E353A" stroke-linecap="round" stroke-linejoin="round"/>
<path d="M308.887 134.493L131.95 249.354L188.626 336.661L365.564 221.801L308.887 134.493Z" fill="white" stroke="#2E353A" stroke-linecap="round" stroke-linejoin="round"/>
<path d="M299.498 245.263C316.845 242.444 328.622 226.096 325.803 208.749C322.984 191.402 306.636 179.624 289.289 182.443C271.942 185.262 260.165 201.61 262.984 218.957C265.802 236.304 282.15 248.082 299.498 245.263Z" fill="#2E353A" stroke="#2E353A" stroke-linecap="round" stroke-linejoin="round"/>
<path d="M311.744 240.458C315.673 237.911 318.991 234.528 321.46 230.55C323.929 226.571 325.488 222.096 326.026 217.445C317.797 206.684 303.159 203.545 292.345 210.561C281.531 217.577 278.445 232.242 284.92 244.137C289.386 245.54 294.106 245.938 298.744 245.302C303.382 244.666 307.821 243.012 311.744 240.458V240.458Z" fill="#49D0F9" stroke="#2E353A" stroke-linecap="round" stroke-linejoin="round"/>
<path d="M301.416 220.783C308.196 215.006 309.01 204.827 303.233 198.046C297.456 191.266 287.277 190.452 280.496 196.229C273.716 202.006 272.902 212.185 278.679 218.965C284.456 225.746 294.635 226.56 301.416 220.783Z" fill="white" stroke="#2E353A" stroke-linecap="round" stroke-linejoin="round"/>
<path d="M229.596 230.136L167.674 270.333L172.291 277.445L234.213 237.248L229.596 230.136Z" fill="white" stroke="#2E353A" stroke-linecap="round" stroke-linejoin="round"/>
<path d="M240.68 247.218L178.759 287.415L183.376 294.527L245.298 254.33L240.68 247.218Z" fill="white" stroke="#2E353A" stroke-linecap="round" stroke-linejoin="round"/>
<path d="M248.813 263.205L186.801 303.07L189.094 306.637L251.106 266.772L248.813 263.205Z" fill="#2E353A"/>
<path d="M255.474 269.984L193.553 310.181L195.865 313.743L257.786 273.546L255.474 269.984Z" fill="#2E353A"/>
<path d="M283.666 313.4L221.745 353.597L224.057 357.158L285.978 316.961L283.666 313.4Z" fill="#2E353A"/>
<path d="M288.748 321.241L226.826 361.438L229.139 364.999L291.06 324.802L288.748 321.241Z" fill="#2E353A"/>
<path d="M293.83 329.082L231.908 369.279L234.221 372.841L296.142 332.644L293.83 329.082Z" fill="#2E353A"/>
<path d="M367.656 258.873L305.734 299.07L308.046 302.632L369.968 262.435L367.656 258.873Z" fill="#2E353A"/>
<path d="M372.749 266.707L310.827 306.904L313.139 310.466L375.061 270.269L372.749 266.707Z" fill="#2E353A"/>
<path d="M377.831 274.549L315.909 314.746L318.221 318.307L380.143 278.11L377.831 274.549Z" fill="#2E353A"/>
<path d="M215.711 347.383L365.18 250.335" stroke="#2E353A" stroke-linecap="round" stroke-linejoin="round"/>
<path d="M310.007 353.985L248.086 394.182L250.398 397.744L312.32 357.547L310.007 353.985Z" fill="#2E353A"/>
<path d="M315.082 361.815L253.161 402.012L255.473 405.574L317.394 365.377L315.082 361.815Z" fill="#2E353A"/>
<path d="M320.175 369.637L258.254 409.833L260.566 413.395L322.487 373.198L320.175 369.637Z" fill="#2E353A"/>
<path d="M393.997 299.459L332.075 339.656L334.388 343.218L396.309 303.021L393.997 299.459Z" fill="#2E353A"/>
<path d="M399.083 307.282L337.161 347.479L339.473 351.041L401.395 310.844L399.083 307.282Z" fill="#2E353A"/>
<path d="M404.151 315.123L342.23 355.32L344.542 358.882L406.464 318.685L404.151 315.123Z" fill="#2E353A"/>
<path d="M242.047 387.949L391.516 290.914" stroke="#2E353A" stroke-linecap="round" stroke-linejoin="round"/>
<path d="M414.34 330.778L267.71 425.964L290.81 461.549L437.44 366.363L414.34 330.778Z" fill="#2E353A" stroke="#2E353A" stroke-linecap="round" stroke-linejoin="round"/>
<path d="M108.521 232.954L14.7306 160.342L70.5409 265.039C71.8597 267.571 68.365 268.046 64.8043 265.804C61.2041 263.549 57.6566 264.05 59.0677 266.609L88.0146 319.228C88.4746 319.977 89.0799 320.627 89.795 321.14L103.932 331.795C104.667 332.314 105.283 332.984 105.739 333.76L164.305 444.999L265.6 519.694L108.521 232.954Z" fill="#49D0F9" stroke="#2E353A" stroke-linecap="round" stroke-linejoin="round"/>
<path opacity="0.25" d="M108.521 232.954L14.7306 160.342L70.5409 265.039C71.8597 267.571 68.365 268.046 64.8043 265.804C61.2041 263.549 57.6566 264.05 59.0677 266.609L88.0146 319.228C88.4746 319.977 89.0799 320.627 89.795 321.14L103.932 331.795C104.667 332.314 105.283 332.984 105.739 333.76L164.305 444.999L265.6 519.694L108.521 232.954Z" fill="#2E353A" stroke="#2E353A" stroke-linecap="round" stroke-linejoin="round"/>
<path d="M103.697 298.525L94.3566 293.51C94.0813 293.362 93.7759 293.154 93.5075 292.93C93.2391 292.707 93.0297 292.487 92.9254 292.319C92.8212 292.151 92.8305 292.048 92.9515 292.034C93.0724 292.019 93.295 292.094 93.5703 292.242L102.911 297.257C103.186 297.405 103.492 297.613 103.76 297.837C104.028 298.06 104.238 298.28 104.342 298.448C104.682 298.884 104.32 298.859 103.697 298.525Z" fill="#206980"/>
<path d="M101.809 295.48L92.4686 290.465C92.1933 290.317 91.8879 290.109 91.6195 289.885C91.3511 289.662 91.1417 289.442 91.0375 289.274C90.9332 289.106 90.9426 289.003 91.0635 288.989C91.1844 288.974 91.407 289.049 91.6823 289.197L101.023 294.212C101.298 294.36 101.604 294.568 101.872 294.792C102.14 295.015 102.35 295.235 102.454 295.403C102.516 295.493 102.548 295.566 102.548 295.62C102.548 295.673 102.517 295.704 102.456 295.711C102.395 295.718 102.305 295.702 102.194 295.662C102.083 295.622 101.951 295.56 101.809 295.48V295.48Z" fill="#206980"/>
<path d="M136.984 319.269L117.991 309.072C117.715 308.924 117.41 308.716 117.142 308.492C116.874 308.269 116.664 308.049 116.56 307.881C116.477 307.727 116.496 307.634 116.615 307.62C116.733 307.606 116.943 307.671 117.204 307.804L136.198 318.001C136.473 318.149 136.779 318.357 137.047 318.581C137.315 318.804 137.525 319.024 137.629 319.192C137.733 319.361 137.724 319.463 137.603 319.478C137.482 319.492 137.26 319.417 136.984 319.269V319.269Z" fill="#206980"/>
<path d="M135.097 316.225L116.103 306.028C115.828 305.88 115.523 305.672 115.254 305.448C114.986 305.225 114.777 305.005 114.672 304.837C114.568 304.669 114.577 304.566 114.698 304.552C114.819 304.537 115.042 304.612 115.317 304.76L134.311 314.957C134.586 315.105 134.891 315.314 135.159 315.537C135.428 315.76 135.637 315.98 135.742 316.148C135.803 316.238 135.835 316.312 135.835 316.365C135.836 316.418 135.804 316.449 135.743 316.456C135.682 316.464 135.593 316.447 135.481 316.407C135.37 316.367 135.239 316.305 135.097 316.225Z" fill="#206980"/>
<path d="M150.626 339.484L127.274 326.946C126.511 326.537 125.698 326.04 124.882 325.483C124.066 324.927 123.263 324.321 122.519 323.702C121.774 323.082 121.103 322.461 120.544 321.873C119.985 321.286 119.549 320.743 119.261 320.277L122.375 321.949C122.657 322.391 123.203 322.96 123.897 323.538C124.591 324.116 125.379 324.656 126.095 325.045L149.448 337.583C150.155 337.958 150.725 338.146 151.038 338.109C151.35 338.072 151.382 337.812 151.125 337.384L138.241 316.604C137.959 316.163 137.413 315.593 136.719 315.015C136.026 314.438 135.237 313.897 134.521 313.508L111.169 300.97C110.462 300.596 109.892 300.407 109.579 300.444C109.266 300.481 109.235 300.741 109.491 301.169L113.381 307.442L110.267 305.77L106.378 299.497C106.088 299.031 105.951 298.649 105.976 298.375C106 298.101 106.186 297.939 106.522 297.9C106.857 297.86 107.336 297.943 107.932 298.144C108.527 298.345 109.227 298.66 109.991 299.07L133.343 311.608C134.106 312.017 134.918 312.514 135.734 313.07C136.55 313.627 137.353 314.232 138.098 314.852C138.842 315.471 139.513 316.093 140.072 316.68C140.631 317.268 141.067 317.81 141.355 318.276L154.278 339.12C154.836 340.041 154.765 340.596 154.081 340.664C153.397 340.733 152.155 340.308 150.626 339.484Z" fill="#206980"/>
<path d="M116.85 309.133L114.441 311.055L105.953 303.282L116.85 309.133Z" fill="#206980"/>
<path d="M127.126 323.583L103.773 311.045C103.01 310.636 102.197 310.138 101.381 309.581C100.565 309.024 99.7612 308.418 99.0166 307.799C98.2721 307.179 97.6011 306.557 97.0421 305.97C96.4832 305.382 96.0472 304.839 95.7591 304.374L83.061 283.893C82.7706 283.426 82.6336 283.044 82.6579 282.769C82.6823 282.495 82.8675 282.333 83.2029 282.293C83.5384 282.253 84.0175 282.335 84.6128 282.536C85.208 282.737 85.9078 283.052 86.6719 283.462L110.025 296C110.788 296.409 111.601 296.907 112.417 297.464C113.233 298.021 114.037 298.627 114.781 299.246C115.526 299.866 116.197 300.488 116.756 301.075C117.315 301.663 117.751 302.206 118.039 302.671L114.925 301C114.642 300.558 114.097 299.988 113.403 299.411C112.709 298.833 111.921 298.292 111.204 297.902L87.8514 285.365C87.1445 284.99 86.5747 284.802 86.262 284.839C85.9493 284.877 85.9181 285.137 86.175 285.565L98.8731 306.045C99.1553 306.487 99.7009 307.057 100.395 307.634C101.089 308.212 101.877 308.753 102.594 309.143L125.946 321.68C126.653 322.055 127.223 322.243 127.536 322.206C127.848 322.168 127.88 321.908 127.623 321.48L124.596 316.598L127.71 318.27L130.737 323.152C131.304 324.083 131.243 324.65 130.568 324.73C129.893 324.81 128.657 324.399 127.126 323.583V323.583Z" fill="#206980"/>
<path d="M121.035 314.763L123.444 312.841L131.932 320.613L121.035 314.763Z" fill="#206980"/>
</svg>
